<svg xmlns="http://www.w3.org/2000/svg" viewBox="0 0 96 96" role="img" aria-label="Habit Planner mark">
  <defs>
    <radialGradient id="g" cx="50%" cy="38%" r="68%">
      <stop offset="0" stop-color="#f8f7d4"/>
      <stop offset=".28" stop-color="#7df7d0"/>
      <stop offset=".62" stop-color="#6aa7ff"/>
      <stop offset="1" stop-color="#171b32"/>
    </radialGradient>
    <linearGradient id="rim" x1="14" x2="82" y1="12" y2="84">
      <stop stop-color="#fff2a8"/>
      <stop offset=".42" stop-color="#73f3ff"/>
      <stop offset="1" stop-color="#a88cff"/>
    </linearGradient>
    <filter id="glow" x="-40%" y="-40%" width="180%" height="180%">
      <feGaussianBlur stdDeviation="3.5" result="b"/>
      <feMerge>
        <feMergeNode in="b"/>
        <feMergeNode in="SourceGraphic"/>
      </feMerge>
    </filter>
  </defs>
  <path d="M48 7 82 24v34L48 89 14 58V24L48 7Z" fill="#090d18"/>
  <path d="M48 11 78 26v30L48 83 18 56V26l30-15Z" fill="url(#g)" opacity=".92"/>
  <path d="M48 7 82 24v34L48 89 14 58V24L48 7Z" fill="none" stroke="url(#rim)" stroke-width="4"/>
  <path d="M48 24 60 42l18 6-18 6-12 18-12-18-18-6 18-6 12-18Z" fill="#06121a" opacity=".88"/>
  <path d="M48 29 57 43l14 5-14 5-9 14-9-14-14-5 14-5 9-14Z" fill="#e9fff9" filter="url(#glow)"/>
  <path d="M48 35v26M35 48h26" stroke="#6ff5ff" stroke-width="3" stroke-linecap="round"/>
</svg>
