<svg xmlns="http://www.w3.org/2000/svg" viewBox="0 0 360 120">
  <defs>
    <linearGradient id="a" x1="0" x2="1">
      <stop stop-color="#75f4ff"/>
      <stop offset=".5" stop-color="#ffe28a"/>
      <stop offset="1" stop-color="#b39aff"/>
    </linearGradient>
    <filter id="glow" x="-40%" y="-40%" width="180%" height="180%">
      <feGaussianBlur stdDeviation="2.4"/>
    </filter>
  </defs>
  <rect width="360" height="120" rx="18" fill="#080c16"/>
  <g transform="translate(32 24)">
    <path d="M36 0 72 20v32L36 72 0 52V20L36 0Z" fill="#11182a" stroke="url(#a)" stroke-width="3"/>
    <path d="M36 15 46 32l17 4-17 5-10 16-10-16-17-5 17-4 10-17Z" fill="#dffff9"/>
  </g>
  <g transform="translate(144 24)">
    <circle cx="36" cy="36" r="34" fill="#11182a" stroke="url(#a)" stroke-width="3"/>
    <path d="M36 11 50 35l-14 26-14-26 14-24Z" fill="#dffff9"/>
    <path d="M19 36h34" stroke="#7df7d0" stroke-width="3" stroke-linecap="round"/>
  </g>
  <g transform="translate(256 24)">
    <path d="M36 0c20 10 31 22 32 36-1 14-12 26-32 36C16 62 5 50 4 36 5 22 16 10 36 0Z" fill="#11182a" stroke="url(#a)" stroke-width="3"/>
    <path d="M19 44c14 2 20-2 17-15 8 4 13 11 16 21-11 2-22 0-33-6Z" fill="#e9fff9"/>
    <circle cx="47" cy="29" r="4" fill="#ffe28a" filter="url(#glow)"/>
  </g>
</svg>
