<svg xmlns="http://www.w3.org/2000/svg" viewBox="0 0 512 128">
  <defs>
    <radialGradient id="cyan">
      <stop offset="0" stop-color="#ffffff"/>
      <stop offset=".35" stop-color="#75f4ff"/>
      <stop offset="1" stop-color="#75f4ff" stop-opacity="0"/>
    </radialGradient>
    <radialGradient id="gold">
      <stop offset="0" stop-color="#fff8cf"/>
      <stop offset=".36" stop-color="#ffd166"/>
      <stop offset="1" stop-color="#ffd166" stop-opacity="0"/>
    </radialGradient>
    <radialGradient id="mint">
      <stop offset="0" stop-color="#ffffff"/>
      <stop offset=".34" stop-color="#54ffa9"/>
      <stop offset="1" stop-color="#54ffa9" stop-opacity="0"/>
    </radialGradient>
    <filter id="soft" x="-60%" y="-60%" width="220%" height="220%">
      <feGaussianBlur stdDeviation="1.8"/>
    </filter>
  </defs>
  <g transform="translate(0 0)">
    <circle cx="32" cy="32" r="20" fill="url(#cyan)"/>
    <circle cx="32" cy="32" r="5" fill="#fff"/>
  </g>
  <g transform="translate(64 0)">
    <path d="M32 7 39 25l18 7-18 7-7 18-7-18-18-7 18-7 7-18Z" fill="url(#gold)"/>
  </g>
  <g transform="translate(128 0)">
    <path d="M15 42 49 12 55 18 21 48Z" fill="#76f4ff" opacity=".95"/>
    <path d="M12 51 30 45M41 24l12-11" stroke="#fff8cf" stroke-width="3" stroke-linecap="round"/>
  </g>
  <g transform="translate(192 0)">
    <path d="M32 10c11 11 11 33 0 44-11-11-11-33 0-44Z" fill="none" stroke="#bda4ff" stroke-width="4"/>
    <circle cx="32" cy="32" r="4" fill="#fff"/>
  </g>
  <g transform="translate(256 0)">
    <path d="M8 34c17-16 31-18 48-4" fill="none" stroke="#75f4ff" stroke-width="5" stroke-linecap="round"/>
    <path d="M47 20 58 30 44 36" fill="none" stroke="#fff8cf" stroke-width="4" stroke-linecap="round" stroke-linejoin="round"/>
  </g>
  <g transform="translate(320 0)">
    <circle cx="32" cy="32" r="30" fill="url(#mint)" filter="url(#soft)"/>
    <path d="M19 32h26M32 19v26" stroke="#ffffff" stroke-width="3" stroke-linecap="round"/>
  </g>
  <g transform="translate(384 0)">
    <path d="M4 33h56" stroke="#75f4ff" stroke-width="4" stroke-linecap="round"/>
    <path d="M15 25h36M20 41h26" stroke="#fff8cf" stroke-width="2" stroke-linecap="round" opacity=".86"/>
  </g>
  <g transform="translate(448 0)">
    <circle cx="18" cy="18" r="4" fill="url(#cyan)"/>
    <circle cx="44" cy="28" r="3" fill="url(#gold)"/>
    <circle cx="28" cy="46" r="5" fill="url(#mint)"/>
  </g>
  <g transform="translate(0 64)">
    <path d="M32 8 37 27l19 5-19 5-5 19-5-19-19-5 19-5 5-19Z" fill="#54ffa9"/>
  </g>
  <g transform="translate(64 64)">
    <path d="M12 34c10-22 30-24 40-2-10 17-30 17-40 2Z" fill="#111a2d" stroke="#75f4ff" stroke-width="4"/>
    <circle cx="32" cy="32" r="8" fill="#75f4ff"/>
  </g>
  <g transform="translate(128 64)">
    <path d="M18 52 32 8l14 44-14-9-14 9Z" fill="#ffd166"/>
  </g>
  <g transform="translate(192 64)">
    <path d="M12 48c6-19 20-31 40-36-5 21-17 34-40 36Z" fill="#54ffa9"/>
  </g>
  <g transform="translate(256 64)">
    <path d="M9 32h46" stroke="#ff6b9f" stroke-width="5" stroke-linecap="round"/>
    <path d="m20 18 24 28M44 18 20 46" stroke="#fff" stroke-width="3" stroke-linecap="round"/>
  </g>
  <g transform="translate(320 64)">
    <rect x="20" y="10" width="9" height="44" rx="4" fill="#cbd5e1"/>
    <rect x="35" y="10" width="9" height="44" rx="4" fill="#cbd5e1"/>
  </g>
  <g transform="translate(384 64)">
    <path d="M20 14h24v12l-8 6 8 6v12H20V38l8-6-8-6V14Z" fill="none" stroke="#ffd166" stroke-width="4" stroke-linejoin="round"/>
  </g>
  <g transform="translate(448 64)">
    <path d="M32 8 57 22v22L32 58 7 44V22L32 8Z" fill="#111a2d" stroke="#75f4ff" stroke-width="4"/>
    <path d="M32 21 39 32l-7 11-7-11 7-11Z" fill="#fff8cf"/>
  </g>
</svg>
