<svg xmlns="http://www.w3.org/2000/svg" viewBox="0 0 180 180" preserveAspectRatio="none">
  <defs>
    <linearGradient id="edge" x1="0" x2="1" y1="0" y2="1">
      <stop stop-color="#fff1a6" stop-opacity=".62"/>
      <stop offset=".45" stop-color="#72efff" stop-opacity=".44"/>
      <stop offset="1" stop-color="#b69cff" stop-opacity=".52"/>
    </linearGradient>
  </defs>
  <rect x="2" y="2" width="176" height="176" rx="20" fill="none" stroke="url(#edge)" stroke-width="2"/>
  <path d="M22 2h34c-20 7-34 21-41 41V9a7 7 0 0 1 7-7ZM158 2h-34c20 7 34 21 41 41V9a7 7 0 0 0-7-7ZM22 178h34c-20-7-34-21-41-41v34a7 7 0 0 0 7 7ZM158 178h-34c20-7 34-21 41-41v34a7 7 0 0 1-7 7Z" fill="url(#edge)" opacity=".36"/>
  <path d="M90 9 96 21l12 4-12 4-6 12-6-12-12-4 12-4 6-12ZM90 139l6 12 12 4-12 4-6 12-6-12-12-4 12-4 6-12Z" fill="#dffcff" opacity=".42"/>
</svg>
