<svg xmlns="http://www.w3.org/2000/svg" viewBox="0 0 384 256">
  <defs>
    <filter id="glow" x="-50%" y="-50%" width="200%" height="200%">
      <feGaussianBlur stdDeviation="2.2" result="b"/>
      <feMerge><feMergeNode in="b"/><feMergeNode in="SourceGraphic"/></feMerge>
    </filter>
    <linearGradient id="cyan" x1="0" x2="1" y1="0" y2="1"><stop stop-color="#dffcff"/><stop offset=".45" stop-color="#75f4ff"/><stop offset="1" stop-color="#4a7dff"/></linearGradient>
    <linearGradient id="mint" x1="0" x2="1" y1="0" y2="1"><stop stop-color="#eaffef"/><stop offset=".45" stop-color="#54ffa9"/><stop offset="1" stop-color="#0ca777"/></linearGradient>
    <linearGradient id="gold" x1="0" x2="1" y1="0" y2="1"><stop stop-color="#fff8cf"/><stop offset=".5" stop-color="#ffd166"/><stop offset="1" stop-color="#bf7b2f"/></linearGradient>
    <linearGradient id="violet" x1="0" x2="1" y1="0" y2="1"><stop stop-color="#fbf6ff"/><stop offset=".48" stop-color="#b99cff"/><stop offset="1" stop-color="#6d58ff"/></linearGradient>
    <linearGradient id="rose" x1="0" x2="1" y1="0" y2="1"><stop stop-color="#ffe8f2"/><stop offset=".5" stop-color="#ff6b9f"/><stop offset="1" stop-color="#a73566"/></linearGradient>
    <linearGradient id="silver" x1="0" x2="1" y1="0" y2="1"><stop stop-color="#ffffff"/><stop offset=".48" stop-color="#cbd5e1"/><stop offset="1" stop-color="#6b778d"/></linearGradient>
  </defs>
  <g fill="none" stroke-linecap="round" stroke-linejoin="round">
    <g transform="translate(0 0)">
      <circle cx="32" cy="32" r="25" fill="#111a2a" stroke="url(#cyan)" stroke-width="3"/>
      <path d="M21 40c2-15 8-24 20-29 3 12 1 22-7 30" stroke="url(#mint)" stroke-width="5"/>
      <path d="M19 45c10 1 20-2 30-9" stroke="#dffcff" stroke-width="4"/>
    </g>
    <g transform="translate(64 0)">
      <circle cx="32" cy="32" r="25" fill="#171421" stroke="url(#gold)" stroke-width="3"/>
      <path d="M17 31h30l-4 16H21l-4-16Z" fill="#24170e" stroke="url(#gold)" stroke-width="4"/>
      <path d="M24 24c5-5 11-7 18-6-1 7-4 12-11 15" stroke="url(#mint)" stroke-width="4"/>
    </g>
    <g transform="translate(128 0)">
      <circle cx="32" cy="32" r="25" fill="#10172b" stroke="url(#cyan)" stroke-width="3"/>
      <path d="M32 10 47 31 32 54 17 31 32 10Z" fill="url(#cyan)" filter="url(#glow)"/>
      <circle cx="32" cy="32" r="6" fill="#08111f"/>
    </g>
    <g transform="translate(192 0)">
      <circle cx="32" cy="32" r="25" fill="#171227" stroke="url(#violet)" stroke-width="3"/>
      <path d="M32 11 39 25l15 7-15 7-7 14-7-14-15-7 15-7 7-14Z" fill="url(#violet)" filter="url(#glow)"/>
      <circle cx="44" cy="18" r="3" fill="#fff8cf"/>
    </g>
    <g transform="translate(256 0)">
      <circle cx="32" cy="32" r="25" fill="#171521" stroke="url(#gold)" stroke-width="3"/>
      <path d="M32 13c12 8 17 19 14 34-14 6-25 3-34-8 13-1 20-8 20-26Z" fill="url(#gold)"/>
      <path d="M22 42c9 3 17 1 24-5" stroke="#fff8cf" stroke-width="3"/>
    </g>
    <g transform="translate(320 0)">
      <circle cx="32" cy="32" r="25" fill="#121722" stroke="url(#silver)" stroke-width="3"/>
      <path d="M32 12 51 23v18L32 52 13 41V23L32 12Z" fill="#172033" stroke="url(#silver)" stroke-width="3"/>
      <path d="M32 22v20M22 32h20" stroke="#75f4ff" stroke-width="4"/>
    </g>
    <g transform="translate(0 64)">
      <circle cx="32" cy="32" r="25" fill="#101827" stroke="url(#cyan)" stroke-width="3"/>
      <path d="M45 13 22 36M39 11l8 8M18 40l6 6" stroke="url(#cyan)" stroke-width="5"/>
      <path d="M19 19 45 45" stroke="#cfefff" stroke-width="3"/>
    </g>
    <g transform="translate(64 64)">
      <circle cx="32" cy="32" r="25" fill="#171227" stroke="url(#violet)" stroke-width="3"/>
      <path d="M32 12 48 23v18L32 52 16 41V23L32 12Z" fill="url(#violet)" filter="url(#glow)"/>
      <path d="M24 32h16M32 24v16" stroke="#fff8cf" stroke-width="3"/>
    </g>
    <g transform="translate(128 64)">
      <circle cx="32" cy="32" r="25" fill="#171521" stroke="url(#gold)" stroke-width="3"/>
      <path d="M16 44c5-17 16-28 33-32-2 18-13 29-33 32Z" fill="url(#mint)"/>
      <path d="M24 39c6-3 12-9 19-18" stroke="#effff5" stroke-width="3"/>
    </g>
    <g transform="translate(192 64)">
      <circle cx="32" cy="32" r="25" fill="#121722" stroke="url(#silver)" stroke-width="3"/>
      <path d="M12 32c9-13 31-13 40 0-9 13-31 13-40 0Z" fill="#101827" stroke="url(#cyan)" stroke-width="4"/>
      <circle cx="32" cy="32" r="8" fill="url(#cyan)"/>
    </g>
    <g transform="translate(256 64)">
      <circle cx="32" cy="32" r="25" fill="#111827" stroke="url(#silver)" stroke-width="3"/>
      <rect x="22" y="15" width="8" height="34" rx="4" fill="url(#silver)"/>
      <rect x="35" y="15" width="8" height="34" rx="4" fill="url(#silver)"/>
    </g>
    <g transform="translate(320 64)">
      <circle cx="32" cy="32" r="25" fill="#121722" stroke="url(#cyan)" stroke-width="3"/>
      <path d="M32 13 50 32 32 51 14 32 32 13Z" fill="#111a2a" stroke="url(#cyan)" stroke-width="4"/>
      <path d="M25 32h14M32 25v14" stroke="#fff8cf" stroke-width="3"/>
    </g>
    <g transform="translate(0 128)">
      <circle cx="32" cy="32" r="25" fill="#111827" stroke="url(#silver)" stroke-width="3"/>
      <path d="M32 14 44 28 38 47H26l-6-19 12-14Z" fill="#182235" stroke="url(#cyan)" stroke-width="4"/>
      <circle cx="32" cy="28" r="4" fill="#75f4ff"/>
    </g>
    <g transform="translate(64 128)">
      <circle cx="32" cy="32" r="25" fill="#102017" stroke="url(#mint)" stroke-width="3"/>
      <path d="m19 32 9 9 18-20" stroke="url(#mint)" stroke-width="7"/>
      <circle cx="47" cy="17" r="3" fill="#fff8cf"/>
    </g>
    <g transform="translate(128 128)">
      <circle cx="32" cy="32" r="25" fill="#20111b" stroke="url(#rose)" stroke-width="3"/>
      <path d="m21 20 22 24M43 20 21 44" stroke="url(#rose)" stroke-width="7"/>
      <path d="M18 50c10-4 19-4 28 0" stroke="#ffe8f2" stroke-width="3"/>
    </g>
    <g transform="translate(192 128)">
      <circle cx="32" cy="32" r="25" fill="#171827" stroke="url(#silver)" stroke-width="3"/>
      <rect x="22" y="16" width="8" height="32" rx="4" fill="#cbd5e1"/>
      <rect x="35" y="16" width="8" height="32" rx="4" fill="#cbd5e1"/>
      <path d="M17 51h30" stroke="#75f4ff" stroke-width="3"/>
    </g>
    <g transform="translate(256 128)">
      <circle cx="32" cy="32" r="25" fill="#211712" stroke="url(#gold)" stroke-width="3"/>
      <path d="M32 14c10 10 13 19 9 29-7 9-18 8-24 0 13 0 18-9 15-29Z" fill="url(#gold)"/>
      <path d="M19 46c8 4 16 4 25-1" stroke="#fff8cf" stroke-width="3"/>
    </g>
    <g transform="translate(320 128)">
      <circle cx="32" cy="32" r="25" fill="#171421" stroke="url(#gold)" stroke-width="3"/>
      <path d="M23 29v-6c0-7 4-12 9-12s9 5 9 12v6" stroke="url(#gold)" stroke-width="5"/>
      <rect x="18" y="28" width="28" height="23" rx="7" fill="#25180d" stroke="url(#gold)" stroke-width="4"/>
      <circle cx="32" cy="39" r="3" fill="#fff8cf"/>
    </g>
    <g transform="translate(0 192)">
      <circle cx="32" cy="32" r="25" fill="#101827" stroke="url(#cyan)" stroke-width="3"/>
      <path d="M32 10 45 30 32 54 19 30 32 10Z" fill="url(#cyan)" filter="url(#glow)"/>
      <path d="M24 33h16" stroke="#07101e" stroke-width="4"/>
    </g>
    <g transform="translate(64 192)">
      <circle cx="32" cy="32" r="25" fill="#171421" stroke="url(#gold)" stroke-width="3"/>
      <circle cx="32" cy="32" r="16" fill="url(#gold)" filter="url(#glow)"/>
      <path d="M25 32h14M32 25v14" stroke="#4e2e11" stroke-width="3"/>
    </g>
    <g transform="translate(128 192)">
      <circle cx="32" cy="32" r="25" fill="#121f19" stroke="url(#mint)" stroke-width="3"/>
      <path d="M33 10c8 9 6 17 0 23 10 2 15 9 11 18-11-5-19-11-24-23 7 2 12-4 13-18Z" fill="url(#mint)" filter="url(#glow)"/>
    </g>
    <g transform="translate(192 192)">
      <circle cx="32" cy="32" r="25" fill="#121722" stroke="url(#silver)" stroke-width="3"/>
      <path d="M20 45 32 12l12 33-12-6-12 6Z" fill="url(#silver)"/>
      <path d="M26 32h12" stroke="#75f4ff" stroke-width="3"/>
    </g>
    <g transform="translate(256 192)">
      <circle cx="32" cy="32" r="25" fill="#101827" stroke="url(#cyan)" stroke-width="3"/>
      <path d="M11 33h35" stroke="url(#cyan)" stroke-width="6"/>
      <path d="m42 20 12 13-14 11" stroke="#fff8cf" stroke-width="5"/>
    </g>
    <g transform="translate(320 192)">
      <circle cx="32" cy="32" r="25" fill="#0f172a" stroke="url(#violet)" stroke-width="3"/>
      <path d="M32 12 47 29 41 51H23l-6-22 15-17Z" fill="#101827" stroke="url(#cyan)" stroke-width="3"/>
      <path d="M32 21 39 32l-7 11-7-11 7-11Z" fill="#fff8cf"/>
    </g>
  </g>
</svg>
